<svg width="20" height="24" viewBox="0 0 20 24" fill="none" xmlns="http://www.w3.org/2000/svg">
<path d="M9.5455 0.954485C6.03662 0.954485 3.18182 3.80929 3.18182 7.31818C3.18182 8.37154 3.44519 9.41595 3.94584 10.3423L9.1975 19.8404C9.26742 19.9671 9.40064 20.0455 9.5455 20.0455C9.69036 20.0455 9.82358 19.9671 9.8935 19.8404L15.1471 10.3392C15.6458 9.41595 15.9092 8.37148 15.9092 7.31811C15.9092 3.80929 13.0544 0.954485 9.5455 0.954485ZM14.4491 9.9574L9.5455 18.8259L4.64383 9.9609C4.20763 9.15378 3.97734 8.23986 3.97734 7.31818C3.97734 4.24779 6.47519 1.74997 9.54553 1.74997C12.6159 1.74997 15.1137 4.24782 15.1137 7.31818C15.1137 8.23986 14.8834 9.15378 14.4491 9.9574Z" fill="black"/>
<path d="M9.54554 4.13632C7.79111 4.13632 6.36371 5.56372 6.36371 7.31814C6.36371 9.0726 7.79111 10.5 9.54554 10.5C11.3 10.5 12.7274 9.0726 12.7274 7.31818C12.7274 5.56375 11.3 4.13632 9.54554 4.13632ZM9.54554 9.70455C8.22961 9.70455 7.15916 8.6341 7.15916 7.31818C7.15916 6.00225 8.22961 4.9318 9.54554 4.9318C10.8615 4.9318 11.9319 6.00225 11.9319 7.31818C11.9319 8.63407 10.8615 9.70455 9.54554 9.70455Z" fill="black"/>
</svg>
