<svg width="23" height="23" viewBox="0 0 23 23" fill="none" xmlns="http://www.w3.org/2000/svg">
<g clip-path="url(#clip0)">
<path d="M17.7292 18.6875H5.27084" stroke="black" stroke-linecap="round" stroke-linejoin="round"/>
<path d="M11.5 19.8854C11.3578 19.8854 11.2189 19.9276 11.1007 20.0065C10.9825 20.0855 10.8904 20.1978 10.836 20.3291C10.7816 20.4604 10.7673 20.605 10.7951 20.7444C10.8228 20.8838 10.8912 21.0119 10.9918 21.1124C11.0923 21.2129 11.2204 21.2814 11.3598 21.3091C11.4992 21.3368 11.6437 21.3226 11.7751 21.2682C11.9064 21.2138 12.0186 21.1217 12.0976 21.0035C12.1766 20.8853 12.2187 20.7463 12.2187 20.6042C12.2189 20.5097 12.2004 20.4162 12.1643 20.329C12.1282 20.2417 12.0753 20.1624 12.0085 20.0956C11.9417 20.0289 11.8625 19.9759 11.7752 19.9399C11.6879 19.9038 11.5944 19.8853 11.5 19.8854Z" fill="black"/>
<path d="M15.8125 0.479167H7.1875C6.12896 0.479167 5.27084 1.33729 5.27084 2.39583V20.6042C5.27084 21.6627 6.12896 22.5208 7.1875 22.5208H15.8125C16.871 22.5208 17.7292 21.6627 17.7292 20.6042V2.39583C17.7292 1.33729 16.871 0.479167 15.8125 0.479167Z" stroke="black" stroke-linecap="round" stroke-linejoin="round"/>
</g>
<defs>
<clipPath id="clip0">
<rect width="23" height="23" fill="white"/>
</clipPath>
</defs>
</svg>
